<svg xmlns="http://www.w3.org/2000/svg" viewBox="0 0 1000 156.15"><title>600x215LONG_WHITE</title><g id="LONG_WHITE"><path d="M15.17,7.69A4.71,4.71,0,0,1,19.87,3H71.78c15.48,0,28,4.51,35.66,12.15a29.58,29.58,0,0,1,8.81,21.54v.4c0,13.64-6.53,22.33-14.41,27.78a4.67,4.67,0,0,0,1,8.12c12,5.24,21.06,14.27,21.06,29.33v.39c0,22.92-19.59,37.41-49.17,37.41H19.87a4.7,4.7,0,0,1-4.7-4.7ZM70.61,66.26c20.57,0,35.26-10,35.26-28.2v-.4c0-15.08-12.34-25.27-34.28-25.27H30.06a4.7,4.7,0,0,0-4.7,4.71V61.56a4.69,4.69,0,0,0,4.7,4.7Zm4.51,64.45c23.5,0,38.39-10.77,38.39-28v-.39c0-16.85-14.69-26.64-41.73-26.64H30.06a4.69,4.69,0,0,0-4.7,4.7V126a4.69,4.69,0,0,0,4.7,4.7Z" style="fill:#fff;stroke:#fff;stroke-miterlimit:10"/><path d="M146.83,7.69a4.7,4.7,0,0,1,4.7-4.7h52.89C221.27,3,234.78,8.28,243,16.51A36.16,36.16,0,0,1,253.39,42v.4c0,20.41-13.52,33.05-32.8,37.79a4.7,4.7,0,0,0-2.69,7.43l34.73,44.95a4.7,4.7,0,0,1-3.72,7.57h-1a4.69,4.69,0,0,1-3.73-1.83L203.28,85.14a4.67,4.67,0,0,0-3.72-1.83H161.71A4.7,4.7,0,0,0,157,88v47.4a4.69,4.69,0,0,1-4.7,4.7h-.78a4.69,4.69,0,0,1-4.7-4.7ZM203.24,74.1c22.92,0,40-11.56,40-31.34v-.39c0-18.42-14.49-30-39.37-30H161.71A4.71,4.71,0,0,0,157,17.1V69.4a4.7,4.7,0,0,0,4.7,4.7Z" style="fill:#fff;stroke:#fff;stroke-miterlimit:10"/><path d="M333.79,2h3.79a4.72,4.72,0,0,1,4.27,2.73l59.5,128.7a4.69,4.69,0,0,1-4.26,6.67h-.79a4.7,4.7,0,0,1-4.28-2.75l-14.93-32.88a4.69,4.69,0,0,0-4.28-2.76H298a4.69,4.69,0,0,0-4.28,2.76l-14.93,32.88a4.69,4.69,0,0,1-4.28,2.75h-.2a4.7,4.7,0,0,1-4.27-6.67L329.53,4.74A4.7,4.7,0,0,1,333.79,2Zm34.72,83.86-28.75-63.3a4.71,4.71,0,0,0-8.56,0l-28.91,63.3a4.69,4.69,0,0,0,4.27,6.65h57.67A4.69,4.69,0,0,0,368.51,85.87Z" style="fill:#fff;stroke:#fff;stroke-miterlimit:10"/><path d="M399.5,3h1.07a4.71,4.71,0,0,1,4.33,2.86L453,119a4.7,4.7,0,0,0,8.65,0L510,5.85A4.71,4.71,0,0,1,514.32,3h.49a4.71,4.71,0,0,1,4.31,6.59l-56.23,128.7a4.7,4.7,0,0,1-4.3,2.81h-2.86a4.7,4.7,0,0,1-4.31-2.81L395.19,9.58A4.71,4.71,0,0,1,399.5,3Z" style="fill:#fff;stroke:#fff;stroke-miterlimit:10"/><path d="M545.91,3h88.15a4.7,4.7,0,0,1,4.7,4.7h0a4.69,4.69,0,0,1-4.7,4.7h-78a4.7,4.7,0,0,0-4.7,4.71V61.56a4.69,4.69,0,0,0,4.7,4.7h69.15A4.71,4.71,0,0,1,630,71h0a4.71,4.71,0,0,1-4.7,4.7H556.1a4.69,4.69,0,0,0-4.7,4.7V126a4.69,4.69,0,0,0,4.7,4.7H635a4.71,4.71,0,0,1,4.71,4.7h0a4.7,4.7,0,0,1-4.71,4.7H545.91a4.7,4.7,0,0,1-4.7-4.7V7.69A4.71,4.71,0,0,1,545.91,3Z" style="fill:#fff;stroke:#fff;stroke-miterlimit:10"/><path d="M706.76,81.94V7.69a4.71,4.71,0,0,1,4.7-4.7h14.7a4.7,4.7,0,0,1,4.7,4.7V81c0,25.47,13.12,39.18,34.67,39.18,21.35,0,34.48-12.92,34.48-38.19V7.69a4.7,4.7,0,0,1,4.7-4.7H819.4a4.7,4.7,0,0,1,4.7,4.7V80.76c0,40.94-23.11,61.51-59,61.51C729.49,142.27,706.76,121.7,706.76,81.94Z" style="fill:#fff;stroke:#fff;stroke-miterlimit:10"/><path d="M847.43,7.69a4.71,4.71,0,0,1,4.7-4.7H901.5c31.93,0,52.1,18.22,52.1,45.84v.39C953.6,80,928.92,96,898.76,96H876.23a4.69,4.69,0,0,0-4.7,4.7v34.67a4.7,4.7,0,0,1-4.7,4.7h-14.7a4.7,4.7,0,0,1-4.7-4.7Zm52.11,66.6c18.22,0,29.58-10.18,29.58-24.48v-.39c0-16.07-11.56-24.49-29.58-24.49H876.23a4.7,4.7,0,0,0-4.7,4.7v40a4.69,4.69,0,0,0,4.7,4.7Z" style="fill:#fff;stroke:#fff;stroke-miterlimit:10"/><path d="M969.24,11.23c0-.2,0-.41,0-.61h0a6.55,6.55,0,0,1,6.55-6.55h14.71A6.56,6.56,0,0,1,997,10.63h0a5.83,5.83,0,0,1,0,.59l-6.68,80.13a7.14,7.14,0,0,1-7.11,6.55h0a7.15,7.15,0,0,1-7.12-6.53Zm14.1,103.12h0a12.92,12.92,0,0,1,12.91,12.92v1.2a12.71,12.71,0,0,1-12.71,12.72h0a13.34,13.34,0,0,1-13.34-13.34v-.36A13.14,13.14,0,0,1,983.34,114.35Z" style="fill:#fff;stroke:#fff;stroke-miterlimit:10"/></g></svg>