<svg xmlns="http://www.w3.org/2000/svg" viewBox="0 0 80 80"><title>FAVICON</title><g id="OPTION_1"><g id="ARTBOARD_9"><path d="M20.23,37.93H35.66c7.83,0,13.42-3.8,13.42-10.74V27c0-5.74-4.69-9.62-13-9.62H20.23a1.79,1.79,0,0,0-1.79,1.79V36.14A1.79,1.79,0,0,0,20.23,37.93Z"/><path d="M36.11,41.51H20.23a1.79,1.79,0,0,0-1.79,1.79V60.67a1.79,1.79,0,0,0,1.79,1.79H37.38C46.33,62.46,52,58.36,52,51.8v-.15C52,45.24,46.4,41.51,36.11,41.51Z"/><path d="M40,0A40,40,0,1,0,80,40,40,40,0,0,0,40,0ZM56,51.8C56,60.52,48.49,66,37.23,66H16.35a1.79,1.79,0,0,1-1.79-1.79V15.63a1.79,1.79,0,0,1,1.79-1.79H36.11c5.89,0,10.66,1.72,13.57,4.63A11.25,11.25,0,0,1,53,26.67v.15a12.22,12.22,0,0,1-5.49,10.57,1.79,1.79,0,0,0,.38,3.1c4.55,2,8,5.43,8,11.16ZM68.87,16.28,66.18,47.93a1.82,1.82,0,0,1-1.83,1.65H62.6a1.84,1.84,0,0,1-1.83-1.65L58,16.28V13.57H68.87v2.71Z"/><path d="M58.4,57.7a1.82,1.82,0,0,1,1.83-1.81h6.5a1.83,1.83,0,0,1,1.84,1.81v6.69a1.83,1.83,0,0,1-1.84,1.8h-6.5a1.82,1.82,0,0,1-1.83-1.8" style="fill:#fff"/></g></g></svg>